<svg width="40" height="40" viewBox="0 0 40 40" fill="none" xmlns="http://www.w3.org/2000/svg">
<g id="close">
<mask id="mask0_20725_56136" style="mask-type:alpha" maskUnits="userSpaceOnUse" x="0" y="0" width="40" height="40">
<rect id="Bounding box" width="40" height="40" fill="#D9D9D9"/>
</mask>
<g mask="url(#mask0_20725_56136)">
<path id="close_2" d="M20 22.1293L12.5475 29.5817C12.2687 29.8606 11.9138 30 11.4829 30C11.052 30 10.6971 29.8606 10.4183 29.5817C10.1394 29.3029 10 28.948 10 28.5171C10 28.0862 10.1394 27.7313 10.4183 27.4525L17.8707 20L10.4183 12.5475C10.1394 12.2687 10 11.9138 10 11.4829C10 11.052 10.1394 10.6971 10.4183 10.4183C10.6971 10.1394 11.052 10 11.4829 10C11.9138 10 12.2687 10.1394 12.5475 10.4183L20 17.8707L27.4525 10.4183C27.7313 10.1394 28.0862 10 28.5171 10C28.948 10 29.3029 10.1394 29.5817 10.4183C29.8606 10.6971 30 11.052 30 11.4829C30 11.9138 29.8606 12.2687 29.5817 12.5475L22.1293 20L29.5817 27.4525C29.8606 27.7313 30 28.0862 30 28.5171C30 28.948 29.8606 29.3029 29.5817 29.5817C29.3029 29.8606 28.948 30 28.5171 30C28.0862 30 27.7313 29.8606 27.4525 29.5817L20 22.1293Z" fill="#eee"/>
</g>
</g>
</svg>
