<svg width="25" height="24" viewBox="0 0 25 24" fill="none" xmlns="http://www.w3.org/2000/svg">
<g id="keyboard_arrow_down">
<mask id="mask0_20394_24754" style="mask-type:alpha" maskUnits="userSpaceOnUse" x="0" y="0" width="25" height="24">
<rect id="Bounding box" x="0.5" width="24" height="24" fill="#D9D9D9"/>
</mask>
<g mask="url(#mask0_20394_24754)">
<path id="keyboard_arrow_down_2" d="M12.075 15.55C11.9417 15.55 11.8167 15.5292 11.7 15.4875C11.5833 15.4458 11.475 15.375 11.375 15.275L6.775 10.675C6.59167 10.4917 6.5 10.2583 6.5 9.975C6.5 9.69167 6.59167 9.45833 6.775 9.275C6.95833 9.09167 7.19167 9 7.475 9C7.75833 9 7.99167 9.09167 8.175 9.275L12.075 13.175L15.975 9.275C16.1583 9.09167 16.3917 9 16.675 9C16.9583 9 17.1917 9.09167 17.375 9.275C17.5583 9.45833 17.65 9.69167 17.65 9.975C17.65 10.2583 17.5583 10.4917 17.375 10.675L12.775 15.275C12.675 15.375 12.5667 15.4458 12.45 15.4875C12.3333 15.5292 12.2083 15.55 12.075 15.55Z" fill="#9E9E9E"/>
</g>
</g>
</svg>
